<?xml version="1.0" encoding="UTF-8" standalone="no"?>
<!-- Created with Inkscape (http://www.inkscape.org/) -->

<svg
   xmlns:dc="http://purl.org/dc/elements/1.1/"
   xmlns:cc="http://creativecommons.org/ns#"
   xmlns:rdf="http://www.w3.org/1999/02/22-rdf-syntax-ns#"
   xmlns:svg="http://www.w3.org/2000/svg"
   xmlns="http://www.w3.org/2000/svg"
   xmlns:sodipodi="http://sodipodi.sourceforge.net/DTD/sodipodi-0.dtd"
   xmlns:inkscape="http://www.inkscape.org/namespaces/inkscape"
   width="484.76953"
   height="255.51689"
   viewBox="0 0 128.26193 67.605513"
   version="1.1"
   id="svg8"
   inkscape:version="0.92.1 r15371"
   sodipodi:docname="hhs_logo.svg"
   inkscape:export-filename="C:\Users\connor\Pictures\hhs\hhs_logo.png"
   inkscape:export-xdpi="534.26001"
   inkscape:export-ydpi="534.26001">
  <defs
     id="defs2" />
  <sodipodi:namedview
     id="base"
     pagecolor="#ffffff"
     bordercolor="#666666"
     borderopacity="1.0"
     inkscape:pageopacity="0.0"
     inkscape:pageshadow="2"
     inkscape:zoom="3.24933"
     inkscape:cx="153.06389"
     inkscape:cy="47.88326"
     inkscape:document-units="mm"
     inkscape:current-layer="layer1"
     showgrid="false"
     inkscape:window-width="3840"
     inkscape:window-height="2035"
     inkscape:window-x="3827"
     inkscape:window-y="-13"
     inkscape:window-maximized="1"
     showguides="false"
     inkscape:object-paths="true"
     inkscape:object-nodes="true"
     inkscape:snap-intersection-paths="true"
     inkscape:snap-smooth-nodes="true"
     inkscape:snap-midpoints="true"
     inkscape:snap-object-midpoints="true"
     inkscape:snap-center="true"
     inkscape:snap-nodes="false"
     inkscape:snap-others="false"
     units="px"
     fit-margin-top="20"
     fit-margin-left="20"
     fit-margin-right="20"
     fit-margin-bottom="20"
     inkscape:pagecheckerboard="true" />
  <metadata
     id="metadata5">
    <rdf:RDF>
      <cc:Work
         rdf:about="">
        <dc:format>image/svg+xml</dc:format>
        <dc:type
           rdf:resource="http://purl.org/dc/dcmitype/StillImage" />
        <dc:title></dc:title>
      </cc:Work>
    </rdf:RDF>
  </metadata>
  <g
     inkscape:label="Layer 1"
     inkscape:groupmode="layer"
     id="layer1"
     transform="translate(-39.623218,-98.950935)">
    <g
       id="g4538"
       style="fill:#ffffff">
      <path
         id="path4501"
         d="m 103.65008,104.24338 c -5.424287,-0.0345 -12.134496,1.07402 -15.651686,4.12159 -3.778898,3.9169 -0.588581,4.97417 0.344609,5.08581 1.358289,0.12014 3.632877,0.41173 4.342371,-0.97048 0.113493,-0.2787 0.225393,-0.61653 -0.288356,-1.19889 3.301616,-2.96502 9.491542,-3.04336 10.771952,-3.05356 3.39006,-0.15424 7.92158,0.74093 9.99474,1.41697 2.50653,0.81736 2.65807,2.02955 2.65307,2.39778 -0.0191,1.50283 -2.44689,2.20212 -4.98678,2.89181 -1.87226,0.45706 -4.60153,0.89137 -6.66832,1.91772 -1.72845,0.85832 -3.49059,2.58736 -3.49798,4.13555 l -0.007,3.39267 -55.741815,36.12441 58.839305,-31.41927 58.8393,31.41927 -55.45088,-36.12441 0.004,-1.95865 c 0.004,-1.67839 2.40097,-2.89846 4.44159,-3.51749 2.62972,-0.79773 9.8836,-2.2435 9.8836,-6.843 0,-6.73417 -14.87669,-7.79909 -17.82172,-7.81783 z m 0.0108,0.73454 c 4.3212,0.0903 8.97089,0.64411 12.93512,2.49907 2.00619,1.17956 3.65393,2.22367 3.88245,4.56458 -0.16141,4.1773 -8.05311,5.6346 -9.7193,6.08903 -2.80741,0.62435 -5.04997,2.38385 -5.1723,3.99252 l 0.016,2.17765 48.19913,31.18052 -49.15256,-30.13046 -53.468568,31.31127 52.983848,-32.58302 0.007,-2.23759 c 0.003,-0.63787 0.94162,-2.25816 2.48718,-3.02566 1.84811,-0.91775 2.23724,-1.04703 3.91139,-1.45572 6.15822,-1.24964 8.5093,-2.89546 8.8992,-5.16196 0.29917,-2.21936 -2.88628,-4.29943 -5.48959,-4.97386 -1.8538,-0.60451 -7.28016,-1.51717 -10.31151,-1.37924 -5.567304,-0.005 -10.297707,1.14996 -12.862268,2.63033 -2.026637,1.16986 -2.417403,2.51846 -2.398303,2.89905 0.04039,1.08501 2.181625,0.65994 3.015837,0.56327 0.878639,-0.10182 0.191665,0.76161 -0.300241,0.78651 h -5.29e-4 c -2.371386,0.26659 -5.876036,-0.0498 -2.709397,-3.4742 3.553415,-3.24119 9.409351,-4.26059 15.247131,-4.27209 z"
         style="fill:#ffffff;fill-opacity:1;stroke:none;stroke-width:0.26458332px;stroke-linecap:butt;stroke-linejoin:miter;stroke-opacity:1"
         inkscape:connector-curvature="0"
         sodipodi:nodetypes="scccccccccccccccssssccccccccccccccccccsccccc" />
      <g
         id="g4529"
         style="fill:#ffffff">
        <rect
           style="opacity:1;fill:#ffffff;fill-opacity:1;stroke:none;stroke-width:0.26458332;stroke-linecap:round;stroke-miterlimit:4;stroke-dasharray:none;stroke-opacity:1"
           id="rect4545"
           width="34.155376"
           height="2.209985"
           x="86.588791"
           y="159.05479" />
        <path
           inkscape:connector-curvature="0"
           style="opacity:1;fill:#ffffff;fill-opacity:1;stroke:none;stroke-width:0.26458332;stroke-linecap:round;stroke-miterlimit:4;stroke-dasharray:none;stroke-opacity:1"
           d="m 94.175203,140.55094 v 7.54062 h 8.797397 v -7.54062 z m 7.522197,0.86313 h 0.61167 v 5.91113 h -7.268311 v -0.53026 h 6.656641 z"
           id="rect4529"
           sodipodi:nodetypes="cccccccccccc" />
        <path
           sodipodi:nodetypes="cccccccccccc"
           id="path4514"
           d="m 104.39474,140.55094 v 7.54062 h 8.79739 v -7.54062 z m 7.52219,0.86313 h 0.61167 v 5.91113 h -7.26831 v -0.53026 h 6.65664 z"
           style="opacity:1;fill:#ffffff;fill-opacity:1;stroke:none;stroke-width:0.26458332;stroke-linecap:round;stroke-miterlimit:4;stroke-dasharray:none;stroke-opacity:1"
           inkscape:connector-curvature="0" />
        <path
           sodipodi:nodetypes="cccccccccccc"
           id="path4520"
           d="m 104.39474,149.18758 v 7.54062 h 8.79739 v -7.54062 z m 7.52219,0.86313 h 0.61167 v 5.91113 h -7.26831 v -0.53026 h 6.65664 z"
           style="opacity:1;fill:#ffffff;fill-opacity:1;stroke:none;stroke-width:0.26458332;stroke-linecap:round;stroke-miterlimit:4;stroke-dasharray:none;stroke-opacity:1"
           inkscape:connector-curvature="0" />
        <path
           inkscape:connector-curvature="0"
           style="opacity:1;fill:#ffffff;fill-opacity:1;stroke:none;stroke-width:0.26458332;stroke-linecap:round;stroke-miterlimit:4;stroke-dasharray:none;stroke-opacity:1"
           d="m 94.175203,149.18758 v 7.54062 h 8.797387 v -7.54062 z m 7.522187,0.86313 h 0.61167 v 5.91113 h -7.268307 v -0.53026 h 6.656637 z"
           id="path4522"
           sodipodi:nodetypes="cccccccccccc" />
      </g>
    </g>
  </g>
</svg>
